# 3ds Max Wavefront OBJ Exporter v0.97b - (c)2007 guruware
# File Created: 22.11.2017 15:26:00

mtllib arrow marker.mtl

#
# object default
#

v  1.8215 0.5060 -8.2955
v  -1.8215 0.5060 -8.2955
v  -1.8215 0.8647 -8.2955
v  1.8215 0.8647 -8.2955
v  -4.3140 0.3310 0.3325
v  4.3140 0.3310 0.3325
v  -0.0000 0.3136 6.0846
v  1.4380 0.3310 0.3325
v  -1.4380 0.3310 0.3325
v  -0.0000 0.6900 6.0846
v  -4.3140 0.9594 0.3325
v  -1.4380 0.9594 0.3325
v  4.3140 0.9594 0.3325
v  1.4380 0.9594 0.3325
# 14 vertices

vn 0.0000 -0.0000 -1.0000
vn 0.0000 -0.9986 0.0528
vn 0.0000 -0.9988 0.0480
vn -0.8000 0.0000 0.6000
vn -0.9990 0.0000 0.0444
vn 0.0000 0.9989 0.0468
vn -0.0000 0.9986 0.0520
vn 0.0000 0.9986 0.0520
vn 0.8000 0.0000 0.6000
vn 0.9990 0.0000 0.0444
# 10 vertex normals

vt 0.0000 0.0000 0.0000
vt 1.0000 0.0000 0.0000
vt 1.0000 1.0000 0.0000
vt 0.0000 1.0000 0.0000
vt 1.0000 0.3333 0.0000
vt 0.0000 0.3333 0.0000
vt 0.0000 0.6667 0.0000
vt 1.0000 0.6667 0.0000
# 8 texture coords

g default
usemtl arrow
s 1
f 1/1/1 2/2/1 3/3/1 
f 3/3/1 4/4/1 1/1/1 
f 5/5/2 6/6/2 7/1/2 
f 8/7/3 9/8/3 2/3/3 
f 2/3/3 1/4/3 8/7/3 
f 7/1/4 10/2/4 11/5/4 
f 11/5/4 5/6/4 7/1/4 
f 5/6/1 11/5/1 12/8/1 
f 12/8/1 9/7/1 5/6/1 
f 9/7/5 12/8/5 3/3/5 
f 3/3/5 2/4/5 9/7/5 
f 13/5/6 11/6/6 10/1/6 
f 12/7/7 14/8/7 4/3/7 
f 4/3/7 3/4/8 12/7/7 
f 10/1/9 7/2/9 6/5/9 
f 6/5/9 13/6/9 10/1/9 
f 13/6/1 6/5/1 8/8/1 
f 8/8/1 14/7/1 13/6/1 
f 14/7/10 8/8/10 1/3/10 
f 1/3/10 4/4/10 14/7/10 
# 0 polygons - 20 triangles

