# Blender v2.79 (sub 0) OBJ File: ''
# www.blender.org
mtllib cubeStack.mtl
o innerCube
v -0.072307 -0.072307 0.072307
v 0.072307 -0.072307 0.072307
v 0.072307 0.072307 0.072307
v -0.072307 0.072307 0.072307
v 0.072307 0.072307 -0.072307
v -0.072307 0.072307 -0.072307
v 0.072307 -0.072307 -0.072307
v -0.072307 -0.072307 -0.072307
vt 0.375000 0.000000
vt 0.625000 0.000000
vt 0.625000 0.250000
vt 0.375000 0.250000
vt 0.625000 0.500000
vt 0.375000 0.500000
vt 0.625000 0.750000
vt 0.375000 0.750000
vt 0.625000 1.000000
vt 0.375000 1.000000
vt 0.875000 0.000000
vt 0.875000 0.250000
vt 0.125000 0.000000
vt 0.125000 0.250000
vn -0.5774 -0.5774 0.5774
vn 0.5774 -0.5774 0.5774
vn 0.5774 0.5774 0.5774
vn -0.5774 0.5774 0.5774
vn 0.5774 0.5774 -0.5774
vn -0.5774 0.5774 -0.5774
vn 0.5774 -0.5774 -0.5774
vn -0.5774 -0.5774 -0.5774
usemtl Material1
s 1
f 1/1/1 2/2/2 3/3/3 4/4/4
f 4/4/4 3/3/3 5/5/5 6/6/6
f 6/6/6 5/5/5 7/7/7 8/8/8
f 8/8/8 7/7/7 2/9/2 1/10/1
f 2/2/2 7/11/7 5/12/5 3/3/3
f 8/13/8 1/1/1 4/4/4 6/14/6
o outerCube
v -0.168526 -0.187248 0.168526
v -0.187248 -0.168526 0.168526
v -0.187248 -0.168526 -0.168526
v -0.168526 -0.187248 -0.168526
v -0.168526 -0.168526 0.187248
v 0.168526 -0.187248 0.168526
v 0.168526 -0.168526 0.187248
v -0.168526 0.168526 0.187248
v -0.187248 0.168526 0.168526
v 0.187248 -0.168526 0.168526
v 0.168526 -0.187248 -0.168526
v 0.187248 -0.168526 -0.168526
v 0.187248 0.168526 0.168526
v 0.168526 0.168526 0.187248
v -0.168526 0.187248 0.168526
v -0.168526 0.187248 -0.168526
v -0.187248 0.168526 -0.168526
v 0.168526 0.187248 0.168526
v 0.187248 0.168526 -0.168526
v 0.168526 0.187248 -0.168526
v -0.168526 0.168526 -0.187248
v -0.168526 -0.168526 -0.187248
v 0.168526 0.168526 -0.187248
v 0.168526 -0.168526 -0.187248
vt 0.387499 0.987501
vt 0.375000 0.987501
vt 0.375000 0.762499
vt 0.387499 0.762499
vt 0.387499 0.012499
vt 0.387499 0.000000
vt 0.612501 0.000000
vt 0.612501 0.012499
vt 0.362501 0.012499
vt 0.387499 0.237501
vt 0.362501 0.237501
vt 0.625000 0.987501
vt 0.612501 0.987501
vt 0.612501 0.762499
vt 0.625000 0.762499
vt 0.637499 0.012499
vt 0.637499 0.237501
vt 0.612501 0.237501
vt 0.375000 0.262499
vt 0.387499 0.262499
vt 0.387499 0.487501
vt 0.375000 0.487501
vt 0.612501 0.262499
vt 0.625000 0.262499
vt 0.625000 0.487501
vt 0.612501 0.487501
vt 0.375000 0.512499
vt 0.387499 0.512499
vt 0.387499 0.737501
vt 0.375000 0.737501
vt 0.612501 0.512499
vt 0.625000 0.512499
vt 0.625000 0.737501
vt 0.612501 0.737501
vt 0.862501 0.012499
vt 0.862501 0.237501
vt 0.137499 0.012499
vt 0.137499 0.237501
vn -0.3670 -0.8548 0.3670
vn -0.8548 -0.3670 0.3670
vn -0.8548 -0.3670 -0.3670
vn -0.3670 -0.8548 -0.3670
vn -0.3670 -0.3670 0.8548
vn 0.3670 -0.8548 0.3670
vn 0.3670 -0.3670 0.8548
vn -0.3670 0.3670 0.8548
vn -0.8548 0.3670 0.3670
vn 0.8548 -0.3670 0.3670
vn 0.3670 -0.8548 -0.3670
vn 0.8548 -0.3670 -0.3670
vn 0.8548 0.3670 0.3670
vn 0.3670 0.3670 0.8548
vn -0.3670 0.8548 0.3670
vn -0.3670 0.8548 -0.3670
vn -0.8548 0.3670 -0.3670
vn 0.3670 0.8548 0.3670
vn 0.8548 0.3670 -0.3670
vn 0.3670 0.8548 -0.3670
vn -0.3670 0.3670 -0.8548
vn -0.3670 -0.3670 -0.8548
vn 0.3670 0.3670 -0.8548
vn 0.3670 -0.3670 -0.8548
usemtl Default
s 1
f 9/15/9 10/16/10 11/17/11 12/18/12
f 13/19/13 9/20/9 14/21/14 15/22/15
f 10/23/10 13/19/13 16/24/16 17/25/17
f 18/26/18 14/27/14 19/28/19 20/29/20
f 15/22/15 18/30/18 21/31/21 22/32/22
f 17/33/17 23/34/23 24/35/24 25/36/25
f 23/34/23 16/24/16 22/32/22 26/37/26
f 26/37/26 21/38/21 27/39/27 28/40/28
f 25/41/25 29/42/29 30/43/30 11/44/11
f 29/42/29 24/35/24 28/40/28 31/45/31
f 31/45/31 27/46/27 20/47/20 32/48/32
f 12/18/12 30/43/30 32/48/32 19/28/19
f 13/19/13 15/22/15 22/32/22 16/24/16
f 23/34/23 26/37/26 28/40/28 24/35/24
f 29/42/29 31/45/31 32/48/32 30/43/30
f 12/18/12 19/28/19 14/27/14 9/15/9
f 18/30/18 20/49/20 27/50/27 21/31/21
f 11/51/11 10/23/10 17/25/17 25/52/25
f 9/20/9 13/19/13 10/23/10
f 18/30/18 15/22/15 14/21/14
f 17/25/17 16/24/16 23/34/23
f 26/37/26 22/32/22 21/31/21
f 25/36/25 24/35/24 29/42/29
f 31/45/31 28/40/28 27/39/27
f 11/44/11 30/43/30 12/18/12
f 19/28/19 32/48/32 20/47/20
