# This file uses centimeters as units for non-parametric coordinates.

mtllib EndPiece.mtl
v 40.588898 39.523075 -87.596630
v 40.588898 39.523075 102.403393
v -40.588898 39.523079 -87.596630
v -40.588898 39.523079 102.403393
v 65.371422 78.317574 102.403378
v 69.178177 82.124329 102.403378
v 61.564667 82.124329 102.403378
v 65.371422 85.931084 102.403378
v 61.564667 47.720951 -76.433208
v 65.371422 47.720966 -80.239971
v 65.371422 47.720953 -72.626476
v 69.178177 47.720951 -76.433208
v 69.178177 82.124329 -62.961407
v 65.371422 78.317574 -62.961407
v 61.564667 82.124329 -62.961407
v 65.371422 85.931084 -62.961407
v 69.178177 66.669107 -76.433239
v 65.371422 66.669107 -72.626476
v 61.564667 66.669107 -76.433239
v 65.371422 66.669106 -80.239971
v 65.371422 77.870094 -68.266338
v 61.564667 81.500546 -69.086163
v 65.371422 85.130993 -69.905987
v 69.178177 81.500546 -69.086163
v 65.371422 76.071751 -70.890911
v 61.564667 78.401123 -73.701733
v 65.371422 80.730476 -76.512524
v 69.178177 78.401123 -73.701733
v 65.371422 72.436222 -72.291058
v 61.564667 72.999157 -76.014751
v 65.371422 73.562096 -79.738445
v 69.178177 72.999157 -76.014751
v -65.371422 78.317574 102.403378
v -69.178177 82.124329 102.403378
v -61.564667 82.124329 102.403378
v -65.371422 85.931084 102.403378
v -61.564667 47.720951 -76.433208
v -65.371422 47.720966 -80.239971
v -65.371422 47.720953 -72.626476
v -69.178177 47.720951 -76.433208
v -69.178177 82.124329 -62.961407
v -65.371422 78.317574 -62.961407
v -61.564667 82.124329 -62.961407
v -65.371422 85.931084 -62.961407
v -69.178177 66.669107 -76.433239
v -65.371422 66.669107 -72.626476
v -61.564667 66.669107 -76.433239
v -65.371422 66.669106 -80.239971
v -65.371422 77.870094 -68.266338
v -61.564667 81.500546 -69.086163
v -65.371422 85.130993 -69.905987
v -69.178177 81.500546 -69.086163
v -65.371422 76.071751 -70.890911
v -61.564667 78.401123 -73.701733
v -65.371422 80.730476 -76.512524
v -69.178177 78.401123 -73.701733
v -65.371422 72.436222 -72.291058
v -61.564667 72.999157 -76.014751
v -65.371422 73.562096 -79.738445
v -69.178177 72.999157 -76.014751
v 85.500000 50.885559 -92.352673
v 46.152660 50.885559 -92.352673
v 46.152660 45.559944 -92.352673
v 40.588902 45.559944 -87.596600
v 40.588902 20.420460 -87.596600
v 85.500000 0.000000 -92.352673
v 85.500000 50.885559 102.403378
v 46.152660 50.885559 102.403378
v 46.152660 45.559944 102.403378
v 40.588902 45.559944 102.403378
v 40.588902 20.420460 102.403378
v 85.500000 0.000000 102.403378
v -85.500000 50.885559 -92.352673
v -46.152660 50.885559 -92.352673
v -46.152660 45.559944 -92.352673
v -40.588902 45.559944 -87.596600
v -40.588902 20.420460 -87.596600
v -85.500000 0.000000 -92.352673
v -85.500000 50.885559 102.403378
v -46.152660 50.885559 102.403378
v -46.152660 45.559944 102.403378
v -40.588902 45.559944 102.403378
v -40.588902 20.420460 102.403378
v -85.500000 0.000000 102.403378
v -38.824108 46.845514 -102.403393
v -38.824108 42.365553 -102.403393
v -71.923500 4.040043 -102.403393
v -71.923500 46.845514 -102.403393
v 38.824108 46.845514 -102.403393
v 38.824108 42.365553 -102.403393
v 71.923500 46.845514 -102.403393
v 71.923500 4.040043 -102.403393
vt -0.995004 0.038048
vt -0.600264 0.038048
vt -0.995004 0.961952
vt -0.600264 0.961952
vt 0.088617 0.958133
vt 0.064143 0.957882
vt 0.088623 0.876738
vt 0.064943 0.874606
vt 0.112304 0.874610
vt 0.135838 0.871938
vt 0.113092 0.957886
vt 0.136860 0.957138
vt 0.041410 0.871930
vt 0.040375 0.957130
vt 0.112352 0.046857
vt 0.136106 0.046878
vt 0.112354 0.773353
vt 0.135910 0.775625
vt 0.064797 0.046880
vt 0.064907 0.773338
vt 0.041043 0.046907
vt 0.041351 0.775614
vt 0.088653 0.771693
vt 0.088552 0.046857
vt 0.066471 0.847367
vt 0.043744 0.842947
vt 0.088625 0.850244
vt 0.110781 0.847372
vt 0.133509 0.842956
vt 0.043515 0.804319
vt 0.066464 0.799058
vt 0.088633 0.796465
vt 0.110796 0.799070
vt 0.133744 0.804331
vt 0.067350 0.822462
vt 0.044899 0.822040
vt 0.088628 0.822719
vt 0.109906 0.822469
vt 0.132357 0.822051
vt 0.088618 0.958125
vt 0.088612 0.876730
vt 0.113092 0.957875
vt 0.112292 0.874599
vt 0.064931 0.874603
vt 0.064143 0.957878
vt 0.041397 0.871931
vt 0.040375 0.957130
vt 0.135826 0.871923
vt 0.136860 0.957124
vt 0.064882 0.046850
vt 0.064882 0.773346
vt 0.041129 0.046871
vt 0.041325 0.775618
vt 0.112438 0.046873
vt 0.136191 0.046899
vt 0.112329 0.773331
vt 0.135885 0.775607
vt 0.088583 0.771686
vt 0.088683 0.046850
vt 0.133492 0.842940
vt 0.110765 0.847360
vt 0.088610 0.850237
vt 0.066455 0.847365
vt 0.043727 0.842949
vt 0.133720 0.804312
vt 0.110771 0.799051
vt 0.088603 0.796458
vt 0.066439 0.799063
vt 0.043491 0.804324
vt 0.132337 0.822033
vt 0.109886 0.822455
vt 0.088608 0.822711
vt 0.067330 0.822462
vt 0.044878 0.822043
vt 0.205525 0.618375
vt 0.345801 0.618375
vt 0.205525 0.946698
vt 0.345801 0.946698
vt 0.867953 0.372167
vt 0.884251 0.372167
vt 0.867953 0.968146
vt 0.884251 0.968146
vt 0.901278 0.386721
vt 0.901278 0.968146
vt 0.978203 0.386721
vt 0.978203 0.968146
vt 0.591828 0.372167
vt 0.747544 0.372167
vt 0.591828 0.968146
vt 0.747543 0.968146
vt 0.867953 0.372167
vt 0.867953 0.968146
vt 0.884251 0.372167
vt 0.884251 0.968146
vt 0.901278 0.386721
vt 0.901278 0.968146
vt 0.978203 0.386721
vt 0.978203 0.968146
vt 0.591828 0.372167
vt 0.591828 0.968146
vt 0.747544 0.372167
vt 0.747543 0.968146
vt 0.348820 0.572081
vt 0.181243 0.572081
vt 0.348820 0.381224
vt 0.181243 0.381224
vt 0.541927 0.964542
vt 0.438864 0.964542
vt 0.541927 0.631741
vt 0.438864 0.631741
vt 0.419366 0.608931
vt 0.419366 0.987352
vt 0.768219 0.281961
vt 0.752101 0.270637
vt 0.898476 0.260439
vt 0.878248 0.098045
vt 0.381047 0.289152
vt 0.249856 0.260573
vt 0.397264 0.278341
vt 0.274481 0.095819
vt 0.804618 0.323406
vt 0.779395 0.320235
vt 0.950877 0.073809
vt 0.973258 0.282921
vt 0.344128 0.329197
vt 0.371286 0.327142
vt 0.175143 0.280135
vt 0.201088 0.068816
vt 0.217054 0.048101
vt 0.935126 0.050675
vn 0.000000 1.000000 0.000000
vn 0.000000 1.000000 0.000000
vn 0.000000 1.000000 0.000000
vn 0.000000 1.000000 0.000000
vn 0.000000 1.000000 0.000000
vn 0.000000 1.000000 0.000000
vn -0.000001 0.000000 -1.000000
vn -1.000000 0.000000 0.000002
vn 0.000000 0.017406 -0.999849
vn 0.000000 0.017406 -0.999849
vn -1.000000 0.000000 0.000002
vn -0.999912 0.001336 -0.013182
vn 0.999912 0.001336 -0.013183
vn 0.000000 -0.013839 0.999904
vn 1.000000 0.000000 0.000001
vn 1.000000 0.000000 0.000001
vn 0.000000 -0.013839 0.999904
vn 0.000000 0.000000 1.000000
vn -0.000001 0.000000 -1.000000
vn 0.000000 0.017406 -0.999849
vn 1.000000 0.000000 0.000001
vn 1.000000 0.000000 0.000001
vn 0.000000 0.017406 -0.999849
vn 0.999912 0.001336 -0.013183
vn -0.999912 0.001336 -0.013182
vn -1.000000 0.000000 0.000002
vn 0.000000 -0.013839 0.999904
vn 0.000000 -0.013839 0.999904
vn -1.000000 0.000000 0.000002
vn 0.000000 0.000000 1.000000
vn 1.000000 -0.000001 0.000000
vn 0.000000 -1.000000 0.000000
vn 0.999996 0.002777 -0.000412
vn 0.999996 0.002777 -0.000412
vn 0.000000 -1.000000 0.000000
vn 0.000000 -0.999996 0.002718
vn -1.000000 0.000000 0.000000
vn -0.999996 0.002775 -0.000412
vn 0.000000 -1.000000 0.000000
vn 0.000000 -1.000000 0.000000
vn -0.999996 0.002775 -0.000412
vn 0.000000 -0.999996 0.002718
vn 0.000000 0.999992 -0.003893
vn -0.999996 0.002775 -0.000412
vn 0.000000 1.000000 0.000000
vn 0.000000 1.000000 0.000000
vn -0.999996 0.002775 -0.000412
vn -1.000000 0.000000 0.000000
vn 0.999996 0.002777 -0.000412
vn 0.000000 0.999992 -0.003893
vn 1.000000 -0.000001 0.000000
vn 1.000000 -0.000001 0.000000
vn 0.000000 0.999992 -0.003893
vn 0.000000 1.000000 0.000000
vn -0.992654 0.039956 -0.114203
vn -0.999912 0.001336 -0.013182
vn 0.000000 -0.184164 0.982896
vn 0.000000 -0.184164 0.982896
vn -0.999912 0.001336 -0.013182
vn 0.000000 -0.013839 0.999904
vn 0.000001 0.231943 -0.972729
vn 0.000000 0.017406 -0.999849
vn -0.992654 0.039956 -0.114203
vn -0.992654 0.039956 -0.114203
vn 0.000000 0.017406 -0.999849
vn -0.999912 0.001336 -0.013182
vn 0.000001 0.231943 -0.972729
vn 0.992654 0.039955 -0.114201
vn 0.000000 0.017406 -0.999849
vn 0.000000 0.017406 -0.999849
vn 0.992654 0.039955 -0.114201
vn 0.999912 0.001336 -0.013183
vn 0.992654 0.039955 -0.114201
vn 0.000000 -0.184164 0.982896
vn 0.999912 0.001336 -0.013183
vn 0.999912 0.001336 -0.013183
vn 0.000000 -0.184164 0.982896
vn 0.000000 -0.013839 0.999904
vn 0.000000 -0.999996 0.002718
vn -0.999996 0.002775 -0.000412
vn 0.000000 -0.948650 0.316326
vn 0.000000 -0.948650 0.316326
vn -0.999996 0.002775 -0.000412
vn -0.982124 0.167092 -0.086679
vn -0.999996 0.002775 -0.000412
vn 0.000000 0.999992 -0.003893
vn -0.982124 0.167092 -0.086679
vn -0.982124 0.167092 -0.086679
vn 0.000000 0.999992 -0.003893
vn 0.000000 0.938946 -0.344065
vn 0.999996 0.002777 -0.000412
vn 0.982124 0.167091 -0.086679
vn 0.000000 0.999992 -0.003893
vn 0.000000 0.999992 -0.003893
vn 0.982124 0.167091 -0.086679
vn 0.000000 0.938946 -0.344065
vn 0.000000 -0.999996 0.002718
vn 0.000000 -0.948650 0.316326
vn 0.999996 0.002777 -0.000412
vn 0.999996 0.002777 -0.000412
vn 0.000000 -0.948650 0.316326
vn 0.982124 0.167091 -0.086679
vn -0.982124 0.167092 -0.086679
vn -0.976111 0.135002 -0.170240
vn 0.000000 -0.948650 0.316326
vn 0.000000 -0.948650 0.316326
vn -0.976111 0.135002 -0.170240
vn 0.000000 -0.575666 0.817685
vn 0.000000 0.938946 -0.344065
vn 0.000001 0.627250 -0.778818
vn -0.982124 0.167092 -0.086679
vn -0.982124 0.167092 -0.086679
vn 0.000001 0.627250 -0.778818
vn -0.976111 0.135002 -0.170240
vn 0.000000 0.938946 -0.344065
vn 0.982124 0.167091 -0.086679
vn 0.000001 0.627250 -0.778818
vn 0.000001 0.627250 -0.778818
vn 0.982124 0.167091 -0.086679
vn 0.976111 0.135002 -0.170239
vn 0.982124 0.167091 -0.086679
vn 0.000000 -0.948650 0.316326
vn 0.976111 0.135002 -0.170239
vn 0.976111 0.135002 -0.170239
vn 0.000000 -0.948650 0.316326
vn 0.000000 -0.575666 0.817685
vn -0.976111 0.135002 -0.170240
vn -0.992654 0.039956 -0.114203
vn 0.000000 -0.575666 0.817685
vn 0.000000 -0.575666 0.817685
vn -0.992654 0.039956 -0.114203
vn 0.000000 -0.184164 0.982896
vn 0.000001 0.627250 -0.778818
vn 0.000001 0.231943 -0.972729
vn -0.976111 0.135002 -0.170240
vn -0.976111 0.135002 -0.170240
vn 0.000001 0.231943 -0.972729
vn -0.992654 0.039956 -0.114203
vn 0.000001 0.627250 -0.778818
vn 0.976111 0.135002 -0.170239
vn 0.000001 0.231943 -0.972729
vn 0.000001 0.231943 -0.972729
vn 0.976111 0.135002 -0.170239
vn 0.992654 0.039955 -0.114201
vn 0.976111 0.135002 -0.170239
vn 0.000000 -0.575666 0.817685
vn 0.992654 0.039955 -0.114201
vn 0.992654 0.039955 -0.114201
vn 0.000000 -0.575666 0.817685
vn 0.000000 -0.184164 0.982896
vn -0.000001 0.000000 -1.000000
vn 0.000000 0.017406 -0.999849
vn 1.000000 0.000000 0.000001
vn 1.000000 0.000000 0.000001
vn 0.000000 0.017406 -0.999849
vn 0.999912 0.001336 -0.013183
vn -0.999912 0.001336 -0.013182
vn -1.000000 0.000000 0.000002
vn 0.000000 -0.013839 0.999904
vn 0.000000 -0.013839 0.999904
vn -1.000000 0.000000 0.000002
vn 0.000000 0.000000 1.000000
vn -0.000001 0.000000 -1.000000
vn -1.000000 0.000000 0.000002
vn 0.000000 0.017406 -0.999849
vn 0.000000 0.017406 -0.999849
vn -1.000000 0.000000 0.000002
vn -0.999912 0.001336 -0.013182
vn 0.999912 0.001336 -0.013183
vn 0.000000 -0.013839 0.999904
vn 1.000000 0.000000 0.000001
vn 1.000000 0.000000 0.000001
vn 0.000000 -0.013839 0.999904
vn 0.000000 0.000000 1.000000
vn -1.000000 -0.000001 0.000000
vn -0.999996 0.002777 -0.000412
vn 0.000000 -1.000000 0.000000
vn 0.000000 -1.000000 0.000000
vn -0.999996 0.002777 -0.000412
vn 0.000000 -0.999996 0.002718
vn 1.000000 0.000000 0.000000
vn 0.000000 -1.000000 0.000000
vn 0.999996 0.002775 -0.000412
vn 0.999996 0.002775 -0.000412
vn 0.000000 -1.000000 0.000000
vn 0.000000 -0.999996 0.002718
vn 0.000000 0.999992 -0.003893
vn 0.000000 1.000000 0.000000
vn 0.999996 0.002775 -0.000412
vn 0.999996 0.002775 -0.000412
vn 0.000000 1.000000 0.000000
vn 1.000000 0.000000 0.000000
vn -0.999996 0.002777 -0.000412
vn -1.000000 -0.000001 0.000000
vn 0.000000 0.999992 -0.003893
vn 0.000000 0.999992 -0.003893
vn -1.000000 -0.000001 0.000000
vn 0.000000 1.000000 0.000000
vn 0.000000 -0.013839 0.999904
vn 0.999912 0.001336 -0.013183
vn 0.000001 -0.184164 0.982896
vn 0.000001 -0.184164 0.982896
vn 0.999912 0.001336 -0.013183
vn 0.992654 0.039955 -0.114202
vn 0.999912 0.001336 -0.013183
vn 0.000000 0.017406 -0.999849
vn 0.992654 0.039955 -0.114202
vn 0.992654 0.039955 -0.114202
vn 0.000000 0.017406 -0.999849
vn 0.000000 0.231943 -0.972729
vn 0.000000 0.231943 -0.972729
vn 0.000000 0.017406 -0.999849
vn -0.992654 0.039956 -0.114203
vn -0.992654 0.039956 -0.114203
vn 0.000000 0.017406 -0.999849
vn -0.999912 0.001336 -0.013182
vn -0.992654 0.039956 -0.114203
vn -0.999912 0.001336 -0.013182
vn 0.000001 -0.184164 0.982896
vn 0.000001 -0.184164 0.982896
vn -0.999912 0.001336 -0.013182
vn 0.000000 -0.013839 0.999904
vn 0.000000 -0.999996 0.002718
vn 0.000000 -0.948651 0.316326
vn 0.999996 0.002775 -0.000412
vn 0.999996 0.002775 -0.000412
vn 0.000000 -0.948651 0.316326
vn 0.982124 0.167092 -0.086679
vn 0.999996 0.002775 -0.000412
vn 0.982124 0.167092 -0.086679
vn 0.000000 0.999992 -0.003893
vn 0.000000 0.999992 -0.003893
vn 0.982124 0.167092 -0.086679
vn 0.000000 0.938946 -0.344065
vn 0.000000 0.938946 -0.344065
vn -0.982124 0.167089 -0.086679
vn 0.000000 0.999992 -0.003893
vn 0.000000 0.999992 -0.003893
vn -0.982124 0.167089 -0.086679
vn -0.999996 0.002777 -0.000412
vn -0.982124 0.167089 -0.086679
vn 0.000000 -0.948651 0.316326
vn -0.999996 0.002777 -0.000412
vn -0.999996 0.002777 -0.000412
vn 0.000000 -0.948651 0.316326
vn 0.000000 -0.999996 0.002718
vn 0.000000 -0.575666 0.817685
vn 0.976111 0.135002 -0.170240
vn 0.000000 -0.948651 0.316326
vn 0.000000 -0.948651 0.316326
vn 0.976111 0.135002 -0.170240
vn 0.982124 0.167092 -0.086679
vn 0.976111 0.135002 -0.170240
vn 0.000001 0.627250 -0.778818
vn 0.982124 0.167092 -0.086679
vn 0.982124 0.167092 -0.086679
vn 0.000001 0.627250 -0.778818
vn 0.000000 0.938946 -0.344065
vn 0.000000 0.938946 -0.344065
vn 0.000001 0.627250 -0.778818
vn -0.982124 0.167089 -0.086679
vn -0.982124 0.167089 -0.086679
vn 0.000001 0.627250 -0.778818
vn -0.976111 0.135003 -0.170240
vn -0.982124 0.167089 -0.086679
vn -0.976111 0.135003 -0.170240
vn 0.000000 -0.948651 0.316326
vn 0.000000 -0.948651 0.316326
vn -0.976111 0.135003 -0.170240
vn 0.000000 -0.575666 0.817685
vn 0.000001 -0.184164 0.982896
vn 0.992654 0.039955 -0.114202
vn 0.000000 -0.575666 0.817685
vn 0.000000 -0.575666 0.817685
vn 0.992654 0.039955 -0.114202
vn 0.976111 0.135002 -0.170240
vn 0.992654 0.039955 -0.114202
vn 0.000000 0.231943 -0.972729
vn 0.976111 0.135002 -0.170240
vn 0.976111 0.135002 -0.170240
vn 0.000000 0.231943 -0.972729
vn 0.000001 0.627250 -0.778818
vn 0.000001 0.627250 -0.778818
vn 0.000000 0.231943 -0.972729
vn -0.976111 0.135003 -0.170240
vn -0.976111 0.135003 -0.170240
vn 0.000000 0.231943 -0.972729
vn -0.992654 0.039956 -0.114203
vn -0.976111 0.135003 -0.170240
vn -0.992654 0.039956 -0.114203
vn 0.000000 -0.575666 0.817685
vn 0.000000 -0.575666 0.817685
vn -0.992654 0.039956 -0.114203
vn 0.000001 -0.184164 0.982896
vn 0.295824 0.955243 0.000000
vn -0.295824 0.955243 0.000000
vn 0.293489 0.947703 0.125394
vn 0.293489 0.947703 0.125394
vn -0.295824 0.955243 0.000000
vn -0.293489 0.947703 0.125394
vn -0.131540 0.991120 -0.019430
vn -0.654814 0.752833 -0.066800
vn -0.134126 0.990964 0.000000
vn -0.134126 0.990964 0.000000
vn -0.654814 0.752833 -0.066800
vn -0.700183 0.713964 0.000000
vn -0.654814 0.752833 -0.066800
vn -0.848552 0.385383 0.362545
vn -0.700183 0.713964 0.000000
vn -0.700183 0.713964 0.000000
vn -0.848552 0.385383 0.362545
vn -0.976374 0.216087 0.000000
vn -0.848552 0.385383 0.362545
vn -0.293489 0.947703 0.125394
vn -0.976374 0.216087 0.000000
vn -0.976374 0.216087 0.000000
vn -0.293489 0.947703 0.125394
vn -0.295824 0.955243 0.000000
vn 0.289388 -0.956938 -0.022901
vn 0.796248 0.602861 -0.050471
vn 0.285216 -0.958463 0.000000
vn 0.285216 -0.958463 0.000000
vn 0.796248 0.602861 -0.050471
vn 0.791084 0.611707 0.000000
vn 0.796248 0.602861 -0.050471
vn -0.131540 0.991120 -0.019430
vn 0.791084 0.611707 0.000000
vn 0.791084 0.611707 0.000000
vn -0.131540 0.991120 -0.019430
vn -0.134126 0.990964 0.000000
vn 0.131540 0.991120 -0.019430
vn 0.134126 0.990964 0.000000
vn 0.625374 0.776410 -0.078065
vn 0.625374 0.776410 -0.078065
vn 0.134126 0.990964 0.000000
vn 0.700183 0.713964 0.000000
vn 0.625374 0.776410 -0.078065
vn 0.700183 0.713964 0.000000
vn 0.843848 0.397410 0.360535
vn 0.843848 0.397410 0.360535
vn 0.700183 0.713964 0.000000
vn 0.976374 0.216087 0.000000
vn 0.843848 0.397410 0.360535
vn 0.976374 0.216087 0.000000
vn 0.293489 0.947703 0.125394
vn 0.293489 0.947703 0.125394
vn 0.976374 0.216087 0.000000
vn 0.295824 0.955243 0.000000
vn -0.291524 -0.956270 -0.023714
vn -0.285216 -0.958463 0.000000
vn -0.795003 0.604911 -0.045304
vn -0.795003 0.604911 -0.045304
vn -0.285216 -0.958463 0.000000
vn -0.791084 0.611707 0.000000
vn -0.795003 0.604911 -0.045304
vn -0.791084 0.611707 0.000000
vn 0.131540 0.991120 -0.019430
vn 0.131540 0.991120 -0.019430
vn -0.791084 0.611707 0.000000
vn 0.134126 0.990964 0.000000
vn 0.285216 -0.958463 0.000000
vn -0.285216 -0.958463 0.000000
vn 0.289388 -0.956938 -0.022901
vn 0.289388 -0.956938 -0.022901
vn -0.285216 -0.958463 0.000000
vn -0.291524 -0.956270 -0.023714
vn -0.293489 0.947703 0.125394
vn -0.848552 0.385383 0.362545
vn 0.293489 0.947703 0.125394
vn 0.293489 0.947703 0.125394
vn -0.848552 0.385383 0.362545
vn 0.843848 0.397410 0.360535
vn 0.625374 0.776410 -0.078065
vn 0.843848 0.397410 0.360535
vn -0.654814 0.752833 -0.066800
vn -0.654814 0.752833 -0.066800
vn 0.843848 0.397410 0.360535
vn -0.848552 0.385383 0.362545
vn 0.196416 0.721308 -0.664180
vn 0.006439 0.217014 -0.976147
vn -0.210147 0.257299 -0.943205
vn 0.006439 0.217014 -0.976147
vn -0.112551 -0.448580 -0.886628
vn -0.210147 0.257299 -0.943205
vn -0.196416 0.721308 -0.664180
vn 0.231140 0.245539 -0.941427
vn -0.004255 0.121742 -0.992553
vn -0.004255 0.121742 -0.992553
vn 0.231140 0.245539 -0.941427
vn 0.081656 -0.443938 -0.892329
vn 0.081656 -0.443938 -0.892329
vn -0.112551 -0.448580 -0.886628
vn -0.004255 0.121742 -0.992553
vn -0.004255 0.121742 -0.992553
vn -0.112551 -0.448580 -0.886628
vn 0.006439 0.217014 -0.976147
vn 0.131540 0.991120 -0.019430
vn 0.625374 0.776410 -0.078065
vn 0.196416 0.721308 -0.664180
vn 0.196416 0.721308 -0.664180
vn 0.625374 0.776410 -0.078065
vn 0.006439 0.217014 -0.976147
vn -0.291524 -0.956270 -0.023714
vn -0.795003 0.604911 -0.045304
vn -0.112551 -0.448580 -0.886628
vn -0.112551 -0.448580 -0.886628
vn -0.795003 0.604911 -0.045304
vn -0.210147 0.257299 -0.943205
vn -0.795003 0.604911 -0.045304
vn 0.131540 0.991120 -0.019430
vn -0.210147 0.257299 -0.943205
vn -0.210147 0.257299 -0.943205
vn 0.131540 0.991120 -0.019430
vn 0.196416 0.721308 -0.664180
vn -0.131540 0.991120 -0.019430
vn -0.196416 0.721308 -0.664180
vn -0.654814 0.752833 -0.066800
vn -0.654814 0.752833 -0.066800
vn -0.196416 0.721308 -0.664180
vn -0.004255 0.121742 -0.992553
vn 0.796248 0.602861 -0.050471
vn 0.231140 0.245539 -0.941427
vn -0.131540 0.991120 -0.019430
vn -0.131540 0.991120 -0.019430
vn 0.231140 0.245539 -0.941427
vn -0.196416 0.721308 -0.664180
vn 0.796248 0.602861 -0.050471
vn 0.289388 -0.956938 -0.022901
vn 0.231140 0.245539 -0.941427
vn 0.231140 0.245539 -0.941427
vn 0.289388 -0.956938 -0.022901
vn 0.081656 -0.443938 -0.892329
vn 0.289388 -0.956938 -0.022901
vn -0.291524 -0.956270 -0.023714
vn 0.081656 -0.443938 -0.892329
vn 0.081656 -0.443938 -0.892329
vn -0.291524 -0.956270 -0.023714
vn -0.112551 -0.448580 -0.886628
vn 0.625374 0.776410 -0.078065
vn -0.654814 0.752833 -0.066800
vn 0.006439 0.217014 -0.976147
vn 0.006439 0.217014 -0.976147
vn -0.654814 0.752833 -0.066800
vn -0.004255 0.121742 -0.992553
s off
g EndPiece_geo
usemtl StraightGrate
f 4/1/1 2/2/2 3/3/3
f 3/3/4 2/2/5 1/4/6
usemtl EndPiece
f 10/5/7 9/6/8 20/7/9
f 20/7/10 9/6/11 19/8/12
f 17/9/13 18/10/14 12/11/15
f 12/11/16 18/10/17 11/12/18
f 10/5/19 20/7/20 12/11/21
f 12/11/22 20/7/23 17/9/24
f 19/8/25 9/6/26 18/13/27
f 18/13/28 9/6/29 11/14/30
f 6/15/31 5/16/32 13/17/33
f 13/17/34 5/16/35 14/18/36
f 7/19/37 15/20/38 5/21/39
f 5/21/40 15/20/41 14/22/42
f 16/23/43 15/20/44 8/24/45
f 8/24/46 15/20/47 7/19/48
f 13/17/49 16/23/50 6/15/51
f 6/15/52 16/23/53 8/24/54
f 30/25/55 19/8/56 29/26/57
f 29/26/58 19/8/59 18/13/60
f 31/27/61 20/7/62 30/25/63
f 30/25/64 20/7/65 19/8/66
f 31/27/67 32/28/68 20/7/69
f 20/7/70 32/28/71 17/9/72
f 32/28/73 29/29/74 17/9/75
f 17/9/76 29/29/77 18/10/78
f 14/22/79 15/20/80 21/30/81
f 21/30/82 15/20/83 22/31/84
f 15/20/85 16/23/86 22/31/87
f 22/31/88 16/23/89 23/32/90
f 13/17/91 24/33/92 16/23/93
f 16/23/94 24/33/95 23/32/96
f 14/18/97 21/34/98 13/17/99
f 13/17/100 21/34/101 24/33/102
f 22/31/103 26/35/104 21/30/105
f 21/30/106 26/35/107 25/36/108
f 23/32/109 27/37/110 22/31/111
f 22/31/112 27/37/113 26/35/114
f 23/32/115 24/33/116 27/37/117
f 27/37/118 24/33/119 28/38/120
f 24/33/121 21/34/122 28/38/123
f 28/38/124 21/34/125 25/39/126
f 26/35/127 30/25/128 25/36/129
f 25/36/130 30/25/131 29/26/132
f 27/37/133 31/27/134 26/35/135
f 26/35/136 31/27/137 30/25/138
f 27/37/139 28/38/140 31/27/141
f 31/27/142 28/38/143 32/28/144
f 28/38/145 25/39/146 32/28/147
f 32/28/148 25/39/149 29/29/150
f 38/40/151 48/41/152 37/42/153
f 37/42/154 48/41/155 47/43/156
f 45/44/157 40/45/158 46/46/159
f 46/46/160 40/45/161 39/47/162
f 38/40/163 40/45/164 48/41/165
f 48/41/166 40/45/167 45/44/168
f 47/43/169 46/48/170 37/42/171
f 37/42/172 46/48/173 39/49/174
f 34/50/175 41/51/176 33/52/177
f 33/52/178 41/51/179 42/53/180
f 35/54/181 33/55/182 43/56/183
f 43/56/184 33/55/185 42/57/186
f 44/58/187 36/59/188 43/56/189
f 43/56/190 36/59/191 35/54/192
f 41/51/193 34/50/194 44/58/195
f 44/58/196 34/50/197 36/59/198
f 46/48/199 47/43/200 57/60/201
f 57/60/202 47/43/203 58/61/204
f 47/43/205 48/41/206 58/61/207
f 58/61/208 48/41/209 59/62/210
f 59/62/211 48/41/212 60/63/213
f 60/63/214 48/41/215 45/44/216
f 60/63/217 45/44/218 57/64/219
f 57/64/220 45/44/221 46/46/222
f 42/57/223 49/65/224 43/56/225
f 43/56/226 49/65/227 50/66/228
f 43/56/229 50/66/230 44/58/231
f 44/58/232 50/66/233 51/67/234
f 51/67/235 52/68/236 44/58/237
f 44/58/238 52/68/239 41/51/240
f 52/68/241 49/69/242 41/51/243
f 41/51/244 49/69/245 42/53/246
f 53/70/247 54/71/248 49/65/249
f 49/65/250 54/71/251 50/66/252
f 54/71/253 55/72/254 50/66/255
f 50/66/256 55/72/257 51/67/258
f 51/67/259 55/72/260 52/68/261
f 52/68/262 55/72/263 56/73/264
f 52/68/265 56/73/266 49/69/267
f 49/69/268 56/73/269 53/74/270
f 57/60/271 58/61/272 53/70/273
f 53/70/274 58/61/275 54/71/276
f 58/61/277 59/62/278 54/71/279
f 54/71/280 59/62/281 55/72/282
f 55/72/283 59/62/284 56/73/285
f 56/73/286 59/62/287 60/63/288
f 56/73/289 60/63/290 53/74/291
f 53/74/292 60/63/293 57/64/294
f 83/75/295 71/76/296 77/77/297
f 77/77/298 71/76/299 65/78/300
f 62/79/301 63/80/302 68/81/303
f 68/81/304 63/80/305 69/82/306
f 63/80/307 64/83/308 69/82/309
f 69/82/310 64/83/311 70/84/312
f 64/83/313 65/85/314 70/84/315
f 70/84/316 65/85/317 71/86/318
f 66/87/319 61/88/320 72/89/321
f 72/89/322 61/88/323 67/90/324
f 61/88/325 62/79/326 67/90/327
f 67/90/328 62/79/329 68/81/330
f 74/91/331 80/92/332 75/93/333
f 75/93/334 80/92/335 81/94/336
f 75/93/337 81/94/338 76/95/339
f 76/95/340 81/94/341 82/96/342
f 76/95/343 82/96/344 77/97/345
f 77/97/346 82/96/347 83/98/348
f 78/99/349 84/100/350 73/101/351
f 73/101/352 84/100/353 79/102/354
f 73/101/355 79/102/356 74/91/357
f 74/91/358 79/102/359 80/92/360
f 72/103/361 84/104/362 66/105/363
f 66/105/364 84/104/365 78/106/366
f 65/107/367 64/108/368 77/109/369
f 77/109/370 64/108/371 76/110/372
f 75/111/373 76/110/374 63/112/375
f 63/112/376 76/110/377 64/108/378
f 85/113/379 86/114/380 88/115/381
f 86/114/382 87/116/383 88/115/384
f 89/117/385 91/118/386 90/119/387
f 90/119/388 91/118/389 92/120/390
f 92/120/391 87/116/392 90/119/393
f 90/119/394 87/116/395 86/114/396
f 74/121/397 75/122/398 85/113/399
f 85/113/400 75/122/401 86/114/402
f 78/123/403 73/124/404 87/116/405
f 87/116/406 73/124/407 88/115/408
f 73/124/409 74/121/410 88/115/411
f 88/115/412 74/121/413 85/113/414
f 62/125/415 89/117/416 63/126/417
f 63/126/418 89/117/419 90/119/420
f 61/127/421 91/118/422 62/125/423
f 62/125/424 91/118/425 89/117/426
f 61/127/427 66/128/428 91/118/429
f 91/118/430 66/128/431 92/120/432
f 66/129/433 78/130/434 92/120/435
f 92/120/436 78/130/437 87/116/438
f 75/122/439 63/126/440 86/114/441
f 86/114/442 63/126/443 90/119/444
