# 3ds Max Wavefront OBJ Exporter v0.97b - (c)2007 guruware
# File Created: 22.11.2017 15:24:10

mtllib barrier2.mtl

#
# object barrier2
#

v  3.5551 3.0348 -0.0811
v  3.5551 2.5075 -0.0811
v  -3.5807 2.5075 -0.0811
v  -3.5807 3.0348 -0.0811
v  3.5551 3.0348 0.0811
v  -3.5807 3.0348 0.0811
v  -3.5807 2.5075 0.0811
v  3.5551 2.5075 0.0811
v  2.8414 1.5582 -0.7650
v  2.5376 1.5582 -0.7650
v  2.5376 1.5582 0.7650
v  2.8414 1.5582 0.7650
v  2.8414 1.2629 -0.9250
v  2.5376 1.2629 -0.9250
v  2.5376 1.2629 0.9250
v  2.8414 1.2629 0.9250
v  2.7945 0.0000 1.2213
v  2.5827 0.0000 1.2213
v  2.5827 2.2844 0.0766
v  2.7945 2.2844 0.0766
v  2.5827 0.0000 1.5134
v  2.5827 2.2844 0.3687
v  2.7945 0.0000 1.5134
v  2.7945 2.2844 0.3687
v  2.7948 0.0009 -1.2213
v  2.7948 2.2844 -0.0766
v  2.5830 2.2844 -0.0766
v  2.5830 0.0009 -1.2213
v  2.5830 2.2844 -0.3687
v  2.5830 0.0009 -1.5134
v  2.7948 2.2844 -0.3687
v  2.7948 0.0009 -1.5134
v  2.8605 2.2213 -0.4113
v  2.5253 2.2213 -0.4113
v  2.5253 2.9620 -0.0000
v  2.8605 2.9620 -0.0000
v  2.5253 2.2213 0.4113
v  2.8605 2.2213 0.4113
v  3.5551 1.7229 -0.0811
v  3.5551 1.1955 -0.0811
v  -3.5807 1.1955 -0.0811
v  -3.5807 1.7229 -0.0811
v  3.5551 1.7229 0.0811
v  -3.5807 1.7229 0.0811
v  -3.5807 1.1955 0.0811
v  3.5551 1.1955 0.0811
v  -2.8637 1.5582 -0.7650
v  -2.8637 1.5582 0.7650
v  -2.5598 1.5582 0.7650
v  -2.5598 1.5582 -0.7650
v  -2.8637 1.2629 -0.9250
v  -2.5598 1.2629 -0.9250
v  -2.5598 1.2629 0.9250
v  -2.8637 1.2629 0.9250
v  -2.8167 0.0009 1.2213
v  -2.8167 2.2844 0.0766
v  -2.6049 2.2844 0.0766
v  -2.6049 0.0009 1.2213
v  -2.6049 2.2844 0.3687
v  -2.6049 0.0009 1.5134
v  -2.8167 2.2844 0.3687
v  -2.8167 0.0009 1.5134
v  -2.8170 0.0009 -1.2213
v  -2.6052 0.0009 -1.2213
v  -2.6052 2.2844 -0.0766
v  -2.8170 2.2844 -0.0766
v  -2.6052 0.0009 -1.5134
v  -2.6052 2.2844 -0.3687
v  -2.8170 0.0009 -1.5134
v  -2.8170 2.2844 -0.3687
v  -2.8827 2.2213 -0.4113
v  -2.8827 2.9620 -0.0000
v  -2.5475 2.9620 -0.0000
v  -2.5475 2.2213 -0.4113
v  -2.5475 2.2213 0.4113
v  -2.8827 2.2213 0.4113
# 76 vertices

vn 0.0000 0.0000 -1.0000
vn 0.0000 0.0000 1.0000
vn 0.0000 1.0000 -0.0000
vn -1.0000 0.0000 -0.0000
vn 1.0000 0.0000 -0.0000
vn 0.0000 0.4765 -0.8792
vn 0.0000 0.4765 0.8792
vn 0.0000 -0.4480 -0.8940
vn 0.0000 0.4480 0.8940
vn 0.0000 -0.4482 0.8940
vn 0.0000 0.4482 -0.8940
vn 0.0000 0.4855 -0.8742
vn 0.0000 0.4855 0.8742
vn 0.0000 -0.4482 -0.8940
vn 0.0000 0.4482 0.8940
# 15 vertex normals

vt 0.6418 0.9335 0.0000
vt 0.6678 0.9335 0.0000
vt 0.6678 0.4998 0.0000
vt 0.6418 0.4998 0.0000
vt 0.6319 0.9335 0.0000
vt 0.6319 0.4998 0.0000
vt 0.6239 0.4998 0.0000
vt 0.6239 0.9335 0.0000
vt 0.7008 0.7508 0.0000
vt 0.7008 0.7221 0.0000
vt 0.7097 0.7221 0.0000
vt 0.7097 0.7508 0.0000
vt 0.6922 0.6099 0.0000
vt 0.6772 0.6099 0.0000
vt 0.6772 0.6853 0.0000
vt 0.6922 0.6853 0.0000
vt 0.6745 0.6920 0.0000
vt 0.6745 0.7069 0.0000
vt 0.6911 0.7069 0.0000
vt 0.6911 0.6920 0.0000
vt 0.6762 0.5930 0.0000
vt 0.6762 0.5018 0.0000
vt 0.6908 0.5096 0.0000
vt 0.6908 0.5851 0.0000
vt 0.6975 0.9411 0.0000
vt 0.7079 0.9411 0.0000
vt 0.7079 0.8152 0.0000
vt 0.6975 0.8152 0.0000
vt 0.6895 0.9378 0.0000
vt 0.6764 0.9439 0.0000
vt 0.6764 0.8180 0.0000
vt 0.6895 0.8119 0.0000
vt 0.6764 0.9438 0.0000
vt 0.6924 0.7145 0.0000
vt 0.6758 0.7145 0.0000
vt 0.6758 0.7563 0.0000
vt 0.6924 0.7563 0.0000
vt 0.7111 0.7600 0.0000
vt 0.7111 0.8006 0.0000
vt 0.6746 0.7803 0.0000
# 40 texture coords

g barrier2
usemtl 02___Default
s 1
f 1/1/1 2/2/1 3/3/1 
f 1/1/1 3/3/1 4/4/1 
f 5/1/2 6/4/2 7/3/2 
f 5/1/2 7/3/2 8/2/2 
f 1/5/3 4/6/3 6/7/3 
f 1/5/3 6/7/3 5/8/3 
f 4/9/4 3/10/4 7/11/4 
f 4/9/4 7/11/4 6/12/4 
f 2/10/5 1/9/5 5/12/5 
f 2/10/5 5/12/5 8/11/5 
f 9/13/3 10/14/3 11/15/3 
f 9/13/3 11/15/3 12/16/3 
f 13/17/6 14/18/6 10/19/6 
f 13/17/6 10/19/6 9/20/6 
f 14/21/4 15/22/4 11/23/4 
f 14/21/4 11/23/4 10/24/4 
f 15/17/7 16/18/7 12/19/7 
f 15/17/7 12/19/7 11/20/7 
f 16/22/5 13/21/5 9/24/5 
f 16/22/5 9/24/5 12/23/5 
f 17/25/8 18/26/8 19/27/8 
f 17/25/8 19/27/8 20/28/8 
f 18/29/4 21/30/4 22/31/4 
f 18/29/4 22/31/4 19/32/4 
f 21/25/9 23/26/9 24/27/9 
f 21/25/9 24/27/9 22/28/9 
f 23/30/5 17/29/5 20/32/5 
f 23/30/5 20/32/5 24/31/5 
f 25/26/10 26/27/10 27/28/10 
f 25/26/10 27/28/10 28/25/10 
f 28/29/4 27/32/4 29/31/4 
f 28/29/4 29/31/4 30/33/4 
f 30/26/11 29/27/11 31/28/11 
f 30/26/11 31/28/11 32/25/11 
f 32/33/5 31/31/5 26/32/5 
f 32/33/5 26/32/5 25/29/5 
f 33/34/12 34/35/12 35/36/12 
f 33/34/12 35/36/12 36/37/12 
f 34/38/4 37/39/4 35/40/4 
f 37/34/13 38/35/13 36/36/13 
f 37/34/13 36/36/13 35/37/13 
f 38/39/5 33/38/5 36/40/5 
f 39/1/1 40/2/1 41/3/1 
f 39/1/1 41/3/1 42/4/1 
f 43/1/2 44/4/2 45/3/2 
f 43/1/2 45/3/2 46/2/2 
f 39/5/3 42/6/3 44/7/3 
f 39/5/3 44/7/3 43/8/3 
f 42/9/4 41/10/4 45/11/4 
f 42/9/4 45/11/4 44/12/4 
f 40/10/5 39/9/5 43/12/5 
f 40/10/5 43/12/5 46/11/5 
f 47/13/3 48/16/3 49/15/3 
f 47/13/3 49/15/3 50/14/3 
f 51/18/6 47/19/6 50/20/6 
f 51/18/6 50/20/6 52/17/6 
f 52/21/5 50/24/5 49/23/5 
f 52/21/5 49/23/5 53/22/5 
f 53/18/7 49/19/7 48/20/7 
f 53/18/7 48/20/7 54/17/7 
f 54/22/4 48/23/4 47/24/4 
f 54/22/4 47/24/4 51/21/4 
f 55/26/14 56/27/14 57/28/14 
f 55/26/14 57/28/14 58/25/14 
f 58/29/5 57/32/5 59/31/5 
f 58/29/5 59/31/5 60/33/5 
f 60/26/15 59/27/15 61/28/15 
f 60/26/15 61/28/15 62/25/15 
f 62/33/4 61/31/4 56/32/4 
f 62/33/4 56/32/4 55/29/4 
f 63/25/10 64/26/10 65/27/10 
f 63/25/10 65/27/10 66/28/10 
f 64/29/5 67/33/5 68/31/5 
f 64/29/5 68/31/5 65/32/5 
f 67/25/11 69/26/11 70/27/11 
f 67/25/11 70/27/11 68/28/11 
f 69/33/4 63/29/4 66/32/4 
f 69/33/4 66/32/4 70/31/4 
f 71/35/12 72/36/12 73/37/12 
f 71/35/12 73/37/12 74/34/12 
f 74/38/5 73/40/5 75/39/5 
f 75/35/13 73/36/13 72/37/13 
f 75/35/13 72/37/13 76/34/13 
f 76/39/4 72/40/4 71/38/4 
# 0 polygons - 84 triangles

